<svg xmlns="http://www.w3.org/2000/svg" xmlns:xlink="http://www.w3.org/1999/xlink" version="1.0" x="0" y="0" width="2400" height="2846.6127881816788" viewBox="139.4 88.7056869506836 61.2 72.58862609863282" preserveAspectRatio="xMidYMid meet" colorInterpolationFilters="sRGB"><g><defs><linearGradient id="92" x1="0%" y1="0%" x2="100%" y2="0%"><stop offset="0%" stopColor="#fa71cd"></stop> <stop offset="100%" stopColor="#9b59b6"></stop></linearGradient><linearGradient id="93" x1="0%" y1="0%" x2="100%" y2="0%"><stop offset="0%" stopColor="#f9d423"></stop> <stop offset="100%" stopColor="#f83600"></stop></linearGradient><linearGradient id="94" x1="0%" y1="0%" x2="100%" y2="0%"><stop offset="0%" stopColor="#0064d2"></stop> <stop offset="100%" stopColor="#1cb0f6"></stop></linearGradient><linearGradient id="95" x1="0%" y1="0%" x2="100%" y2="0%"><stop offset="0%" stopColor="#f00978"></stop> <stop offset="100%" stopColor="#3f51b1"></stop></linearGradient><linearGradient id="96" x1="0%" y1="0%" x2="100%" y2="0%"><stop offset="0%" stopColor="#7873f5"></stop> <stop offset="100%" stopColor="#ec77ab"></stop></linearGradient><linearGradient id="97" x1="0%" y1="0%" x2="100%" y2="0%"><stop offset="0%" stopColor="#f9d423"></stop> <stop offset="100%" stopColor="#e14fad"></stop></linearGradient><linearGradient id="98" x1="0%" y1="0%" x2="100%" y2="0%"><stop offset="0%" stopColor="#009efd"></stop> <stop offset="100%" stopColor="#2af598"></stop></linearGradient><linearGradient id="99" x1="0%" y1="0%" x2="100%" y2="0%"><stop offset="0%" stopColor="#ffcc00"></stop> <stop offset="100%" stopColor="#00b140"></stop></linearGradient><linearGradient id="100" x1="0%" y1="0%" x2="100%" y2="0%"><stop offset="0%" stopColor="#d51007"></stop> <stop offset="100%" stopColor="#ff8177"></stop></linearGradient><linearGradient id="102" x1="0%" y1="0%" x2="100%" y2="0%"><stop offset="0%" stopColor="#a2b6df"></stop> <stop offset="100%" stopColor="#0c3483"></stop></linearGradient><linearGradient id="103" x1="0%" y1="0%" x2="100%" y2="0%"><stop offset="0%" stopColor="#7ac5d8"></stop> <stop offset="100%" stopColor="#eea2a2"></stop></linearGradient><linearGradient id="104" x1="0%" y1="0%" x2="100%" y2="0%"><stop offset="0%" stopColor="#00ecbc"></stop> <stop offset="100%" stopColor="#007adf"></stop></linearGradient><linearGradient id="105" x1="0%" y1="0%" x2="100%" y2="0%"><stop offset="0%" stopColor="#b88746"></stop> <stop offset="100%" stopColor="#fdf5a6"></stop></linearGradient></defs><g class="imagesvg isNoFont" transform="translate(140,89.3056869506836)"><g><rect fill="#000000" fillOpacity="0" strokeWidth="2" x="0" y="0" width="60" height="71.3886277915928" class="image-rect"></rect> <svg x="0" y="0" width="60" height="71.3886277915928" filtersec="colorsb6095116908" class="image-svg-svg primary" style="overflow: visible;"><svg xmlns="http://www.w3.org/2000/svg" viewBox="-0.2649999999999999 0.6599300000000001 504.69995 599.73926"><path d="M350.16 326.59 349.07 325.61Q348.77 325.34 349.1 325.11 349.48 324.85 349.47 324.24A.96.66-61.3 0 0 349.45 324.05Q348.95 322.05 347.98 320.25 347.7 319.72 348.29 319.64L348.9 319.55Q349.51 319.46 349.56 318.85L349.74 316.74Q349.8 316.09 349.29 315.68 348.2 314.78 347.65 313.42A.95.95 0 0 1 348.61 312.12Q350.05 312.24 351.32 312.8 351.52 312.89 351.73 312.88 351.92 312.87 352.11 312.88 352.67 312.91 352.12 312.78 351.92 312.73 351.94 312.53 352.08 310.49 350 310.19 349.54 310.12 349.31 309.71 348.94 309.03 349.6 308.43 350.13 307.95 349.57 307.5L348.87 306.94M196.02 312.87Q196.02 312.96 195.75 313 195.51 313.05 195.52 313.29 195.53 313.43 195.66 313.52 196.04 313.77 195.63 313.97 195.44 314.06 195.35 314.25 195.09 314.74 195.61 314.53 196.02 314.36 196.47 314.62A.43.43 0 0 1 196.46 315.37Q196.14 315.54 196.39 315.73 196.94 316.13 196.36 316.49 195.36 317.1 195.56 318.25 195.63 318.64 195.35 318.92C193.79 320.51 192.2 321.78 193.31 324.29A.38.38 0 0 1 193.02 324.82Q192.12 324.94 192.16 325.82 192.18 326.37 191.76 326.71L190.01 328.13Q189.4 328.62 190.16 328.84 190.29 328.88 190.45 328.88 191.19 328.89 190.92 329.58 190.68 330.21 189.97 330.25M34.0765 471.0567A1.93.75 128.2 0 0 35.8594 470.0038 1.93.75 128.2 0 0 36.4635 468.0233 1.93.75 128.2 0 0 34.6806 469.0762 1.93.75 128.2 0 0 34.0765 471.0567" strokeWidth="2" fill="none" strokeLinecap="butt" stroke="#FFFFFF"></path><path fill="#FFFFFF" d="M 350.16 326.59 L 349.07 325.61 Q 348.77 325.34 349.10 325.11 Q 349.48 324.85 349.47 324.24 A 0.96 0.66 -61.3 0 0 349.45 324.05 Q 348.95 322.05 347.98 320.25 Q 347.70 319.72 348.29 319.64 L 348.90 319.55 Q 349.51 319.46 349.56 318.85 L 349.74 316.74 Q 349.80 316.09 349.29 315.68 Q 348.20 314.78 347.65 313.42 A 0.95 0.95 0.0 0 1 348.61 312.12 Q 350.05 312.24 351.32 312.80 Q 351.52 312.89 351.73 312.88 Q 351.92 312.87 352.11 312.88 Q 352.67 312.91 352.12 312.78 Q 351.92 312.73 351.94 312.53 Q 352.08 310.49 350.00 310.19 Q 349.54 310.12 349.31 309.71 Q 348.94 309.03 349.60 308.43 Q 350.13 307.95 349.57 307.50 L 348.87 306.94 Q 357.51 302.72 366.05 298.33 Q 373.63 294.42 382.12 290.44 Q 390.25 286.63 398.14 282.36 Q 399.43 281.66 400.14 280.51 A 0.61 0.61 0.0 0 0 399.88 279.64 C 386.08 272.86 372.09 266.64 358.16 259.65 Q 347.44 254.27 334.98 248.26 C 321.73 241.87 308.29 235.55 295.74 229.04 C 294.00 228.14 292.05 227.65 290.26 226.77 Q 280.06 221.77 270.25 217.23 C 268.18 216.27 266.26 215.45 263.92 216.30 Q 262.21 216.93 260.60 217.62 Q 253.12 220.83 245.69 224.60 Q 237.73 228.65 230.89 231.79 Q 225.24 234.38 219.35 237.34 C 211.83 241.11 204.03 244.12 196.80 248.07 C 187.53 253.14 177.60 257.03 167.97 262.05 C 157.18 267.69 145.85 272.66 134.93 277.71 Q 132.88 278.66 131.87 280.67 Q 131.52 281.36 132.18 281.76 Q 135.21 283.59 138.32 285.07 Q 155.89 293.43 172.28 301.74 C 175.40 303.32 178.63 304.65 181.74 306.18 C 186.39 308.46 191.43 310.29 196.02 312.87 Q 196.02 312.96 195.75 313.00 Q 195.51 313.05 195.52 313.29 Q 195.53 313.43 195.66 313.52 Q 196.04 313.77 195.63 313.97 Q 195.44 314.06 195.35 314.25 Q 195.09 314.74 195.61 314.53 Q 196.02 314.36 196.47 314.62 A 0.43 0.43 0.0 0 1 196.46 315.37 Q 196.14 315.54 196.39 315.73 Q 196.94 316.13 196.36 316.49 Q 195.36 317.10 195.56 318.25 Q 195.63 318.64 195.35 318.92 C 193.79 320.51 192.20 321.78 193.31 324.29 A 0.38 0.38 0.0 0 1 193.02 324.82 Q 192.12 324.94 192.16 325.82 Q 192.18 326.37 191.76 326.71 L 190.01 328.13 Q 189.40 328.62 190.16 328.84 Q 190.29 328.88 190.45 328.88 Q 191.19 328.89 190.92 329.58 Q 190.68 330.21 189.97 330.25 C 186.32 328.95 182.54 326.59 179.66 325.28 C 163.71 317.98 147.93 310.08 131.54 303.23 C 124.12 300.13 117.93 296.18 110.61 293.04 C 108.26 292.03 106.33 291.84 103.93 293.08 C 98.07 296.10 92.53 299.49 86.50 302.23 C 75.74 307.12 65.21 311.81 54.28 317.30 Q 44.21 322.36 33.88 327.24 Q 27.43 330.29 20.43 334.04 Q 15.01 336.94 6.45 340.40 Q 4.51 341.18 2.63 341.48 A 0.64 0.64 0.0 0 1 1.89 340.87 Q 1.58 332.09 1.89 324.02 C 2.02 320.67 7.32 318.84 9.93 317.87 Q 16.10 315.57 20.82 313.04 C 27.41 309.51 34.51 307.14 41.03 303.60 C 47.02 300.34 53.36 297.96 59.07 294.54 Q 63.41 291.94 67.48 290.08 Q 70.48 288.70 73.36 286.97 C 76.26 285.24 79.67 284.55 82.76 283.05 Q 107.18 271.16 131.29 259.05 Q 137.03 256.17 143.24 253.65 C 148.94 251.34 153.88 248.22 159.37 245.66 C 168.38 241.46 177.16 237.28 185.90 232.75 C 191.35 229.94 196.67 227.56 202.08 224.75 Q 212.80 219.18 224.24 214.32 C 230.33 211.74 236.32 208.56 242.28 205.89 Q 243.35 205.41 243.97 204.64 Q 244.74 203.70 243.65 203.16 C 240.82 201.77 237.92 201.17 235.07 199.67 Q 223.25 193.48 210.45 187.83 C 204.66 185.27 199.01 182.31 193.21 179.78 C 187.93 177.48 183.12 174.80 178.05 172.36 C 160.82 164.08 142.99 155.74 125.62 146.82 Q 116.92 142.35 106.78 138.20 C 103.61 136.90 100.90 134.81 97.53 133.38 C 89.16 129.82 81.28 125.60 72.96 121.81 Q 64.34 117.88 55.29 113.55 C 47.85 109.99 39.61 106.52 31.91 102.73 A 2.84 2.84 0.0 0 1 30.32 100.18 L 30.35 82.51 A 0.69 0.68 11.2 0 1 31.30 81.88 Q 40.27 85.64 47.02 88.98 Q 50.01 90.45 53.00 91.94 C 59.65 95.25 66.77 98.01 73.57 101.68 C 77.87 104.00 82.47 105.41 86.68 107.88 Q 92.55 111.31 98.01 113.68 Q 103.90 116.23 111.06 119.67 Q 138.65 132.93 162.19 144.17 C 164.10 145.09 166.05 145.79 167.91 146.78 C 180.48 153.46 194.26 159.48 206.40 165.59 Q 221.71 173.30 235.75 180.03 C 239.49 181.82 243.51 183.01 246.85 185.28 Q 251.01 188.10 256.28 190.08 Q 257.54 190.56 257.54 189.21 L 257.53 4.06 Q 257.53 2.91 258.68 2.89 L 273.79 2.66 A 0.69 0.69 0.0 0 1 274.49 3.35 Q 274.95 96.27 275.29 189.02 Q 275.29 189.47 275.62 189.72 A 0.83 0.83 0.0 0 0 276.47 189.81 C 282.49 186.94 288.48 183.79 294.55 181.04 Q 308.67 174.65 313.40 172.07 Q 328.53 163.80 343.19 157.34 Q 347.03 155.65 350.17 153.92 Q 353.60 152.03 356.96 150.13 Q 359.38 148.77 361.35 148.34 C 364.34 147.69 367.79 147.37 369.79 144.69 Q 371.17 142.86 373.76 141.82 C 379.51 139.52 384.91 137.64 390.50 134.74 C 396.72 131.52 402.98 128.24 409.24 125.54 Q 417.64 121.93 425.76 118.03 Q 429.48 116.24 433.33 114.65 C 437.45 112.95 440.75 110.48 444.71 108.88 Q 448.87 107.21 452.30 105.02 Q 455.26 103.13 458.26 102.08 C 465.08 99.70 471.46 96.07 478.07 93.21 Q 481.50 91.72 485.24 89.52 Q 490.06 86.70 492.51 85.89 Q 497.28 84.33 501.39 82.79 Q 501.94 82.58 501.99 83.16 Q 502.68 91.39 502.30 99.17 Q 502.25 100.24 501.92 101.25 Q 501.75 101.75 501.30 102.02 C 498.50 103.70 495.73 105.42 492.80 106.78 Q 474.48 115.30 456.94 123.08 Q 452.93 124.87 448.95 126.97 Q 445.29 128.91 440.91 130.67 C 436.38 132.49 432.07 135.38 427.34 137.55 C 418.66 141.53 409.68 145.24 401.35 149.91 C 397.47 152.08 393.28 153.16 389.37 155.17 Q 379.87 160.07 370.42 164.84 Q 367.13 166.50 363.33 167.96 C 358.14 169.96 353.44 172.90 348.52 175.50 Q 344.49 177.64 340.10 179.54 Q 329.34 184.20 318.77 189.26 Q 314.78 191.16 310.84 192.78 C 307.25 194.25 303.94 196.18 300.38 197.77 Q 294.58 200.38 288.34 203.38 A 1.30 1.30 0.0 0 0 288.16 205.61 Q 289.80 206.76 291.58 207.55 C 304.58 213.32 317.84 220.11 331.22 225.84 C 336.05 227.91 340.52 230.70 345.30 233.06 Q 364.21 242.39 383.16 250.99 Q 387.81 253.10 392.35 255.37 C 396.42 257.41 400.59 259.01 404.62 261.02 Q 417.33 267.35 428.25 272.52 C 430.62 273.65 430.20 276.37 430.25 278.48 Q 430.37 283.82 430.52 288.82 A 1.56 1.55 -9.8 0 1 429.44 290.34 Q 419.64 293.47 410.49 298.27 C 404.79 301.26 398.77 303.38 393.06 306.26 Q 386.55 309.54 379.83 312.47 C 376.29 314.02 372.44 316.51 369.51 317.71 Q 359.61 321.75 350.16 326.59 Z"></path><path fill="#FFFFFF" d="M316.25 102Q316.1 99.47 317.4 97.64 320.65 93.08 323.58 88.27C324.88 86.12 326.77 84.5 328.1 82.33Q332.26 75.56 336.93 69 339.74 65.04 343.89 56.99 345.65 53.57 350.47 50.59 360.29 44.53 369.69 51.47C373.38 54.2 373.08 59.03 368.97 61.29Q367.04 62.36 365.08 63.23C361.18 64.98 360.74 68.86 358.47 71.92Q354.02 77.92 350.08 83.92C346.86 88.83 343.55 93.21 340.51 98.52Q336.84 104.92 330.59 112.58 330.11 113.17 329.78 112.48L329.12 111.09Q328.88 110.59 328.42 110.27 326.4 108.86 323.4 108.89 318.12 108.96 313.65 109.13A.53.53 0 0 1 313.24 108.23C315.01 106.37 316.41 104.84 316.25 102ZM186.06 87.64C183.89 83.98 180.36 81.73 178.2 77.85Q176.28 74.39 173.89 71.08 166.69 61.1 159.26 49.97 158.35 48.61 159.98 48.57 170.1 48.33 179.75 48.22 181.58 48.19 182.48 49.3C186.73 54.56 190.06 60.23 193.9 65.61 197.59 70.79 200.82 76.07 204.58 81.12Q207.04 84.41 209.32 87.88C212.37 92.51 215.94 96.75 218.82 101.39Q219.81 102.97 218.1 103.73 213.04 105.98 207.72 108.32 205.44 109.33 201.75 108.82A1.57 1.52-14.9 0 1 200.8 108.29Q192.19 98.04 186.06 87.64Z"></path><path fill="#FFFFFF" d="M 348.87 306.94 L 349.57 307.50 Q 350.13 307.95 349.60 308.43 Q 348.94 309.03 349.31 309.71 Q 349.54 310.12 350.00 310.19 Q 352.08 310.49 351.94 312.53 Q 351.92 312.73 352.12 312.78 Q 352.67 312.91 352.11 312.88 Q 351.92 312.87 351.73 312.88 Q 351.52 312.89 351.32 312.80 Q 350.05 312.24 348.61 312.12 A 0.95 0.95 0.0 0 0 347.65 313.42 Q 348.20 314.78 349.29 315.68 Q 349.80 316.09 349.74 316.74 L 349.56 318.85 Q 349.51 319.46 348.90 319.55 L 348.29 319.64 Q 347.70 319.72 347.98 320.25 Q 348.95 322.05 349.45 324.05 A 0.96 0.66 -61.3 0 1 349.47 324.24 Q 349.48 324.85 349.10 325.11 Q 348.77 325.34 349.07 325.61 L 350.16 326.59 Q 334.45 334.63 318.48 342.04 C 312.75 344.69 307.81 347.94 301.75 350.15 C 297.16 351.82 293.39 354.77 288.85 356.66 Q 288.24 356.91 288.71 357.38 C 290.62 359.31 294.52 360.18 297.03 361.07 Q 297.57 361.26 298.10 361.02 Q 298.57 360.81 299.01 361.08 C 306.08 365.52 314.19 368.50 321.73 372.47 C 326.04 374.74 330.65 376.00 335.06 378.23 C 343.18 382.35 351.53 386.17 359.89 390.44 Q 368.51 394.85 375.96 398.25 C 387.65 403.59 399.29 410.06 411.10 415.24 C 416.53 417.62 421.77 420.57 427.21 423.09 Q 432.03 425.32 437.01 428.16 C 441.33 430.63 445.93 432.18 450.39 434.34 Q 461.62 439.78 473.77 445.55 C 481.52 449.23 489.13 453.69 496.89 457.63 C 500.09 459.26 502.33 460.96 502.32 464.42 Q 502.29 471.90 502.13 478.64 Q 502.12 479.05 501.71 479.00 C 497.34 478.43 493.52 477.42 489.65 475.10 C 483.84 471.60 477.72 469.08 471.92 465.95 C 469.01 464.38 466.01 463.56 463.12 462.21 Q 455.50 458.64 448.24 455.06 C 446.02 453.96 444.10 452.31 441.85 451.18 Q 423.58 442.02 404.85 433.44 Q 396.10 429.43 387.55 424.90 C 376.34 418.96 368.40 415.36 358.66 410.74 Q 342.62 403.12 328.66 396.32 C 325.96 395.01 323.32 394.22 320.74 392.63 Q 310.19 386.10 298.45 381.40 C 294.98 380.00 291.70 377.91 288.15 376.51 Q 282.75 374.37 277.48 371.64 Q 276.38 371.07 275.12 370.98 Q 272.07 370.75 274.62 372.44 C 275.46 372.99 275.76 373.67 275.78 374.67 Q 276.04 386.24 276.10 395.01 Q 276.81 493.66 276.44 596.72 Q 276.44 598.04 275.12 598.12 Q 267.01 598.61 258.66 598.24 A 1.87 1.87 0.0 0 1 256.87 596.37 Q 256.74 488.37 256.94 381.22 Q 256.95 376.79 257.29 371.50 A 0.75 0.75 0.0 0 0 256.23 370.76 C 253.57 371.99 250.84 372.87 248.25 374.22 C 242.22 377.39 235.93 379.92 230.08 383.26 C 227.44 384.76 224.47 385.72 221.75 387.10 Q 212.26 391.92 202.29 396.67 Q 199.34 398.07 196.50 399.69 C 193.94 401.15 191.17 401.96 188.55 403.32 C 182.43 406.51 176.23 409.64 169.89 412.50 Q 164.44 414.96 159.30 417.63 C 150.88 422.00 141.66 425.76 134.18 430.23 Q 130.76 432.28 126.84 433.55 C 123.27 434.72 120.10 436.84 116.56 438.28 Q 109.44 441.19 101.83 445.55 Q 96.70 448.50 91.63 450.63 C 87.07 452.55 83.01 455.29 78.35 457.16 C 72.34 459.59 66.63 462.86 60.78 465.71 Q 50.70 470.61 41.19 475.43 C 38.29 476.90 35.68 478.82 32.73 480.13 Q 32.21 480.36 31.87 479.91 Q 30.38 477.93 31.62 476.04 Q 32.96 473.99 34.30 471.71 Q 34.80 470.86 33.98 471.39 C 32.69 472.21 31.35 474.19 30.55 475.51 A 0.80 0.80 0.0 0 1 29.11 475.35 Q 27.15 469.57 26.87 463.38 A 1.66 1.65 -9.1 0 1 28.09 461.70 C 31.72 460.71 34.18 458.10 37.60 456.61 C 41.76 454.79 45.48 452.17 49.77 450.45 Q 53.01 449.14 56.14 447.38 C 62.57 443.77 71.10 440.13 76.29 437.57 Q 87.87 431.89 99.82 426.15 C 108.04 422.21 116.33 417.61 124.91 413.73 Q 130.07 411.39 134.29 409.10 Q 138.49 406.81 142.88 404.82 C 161.60 396.31 179.77 386.33 198.93 377.70 Q 206.41 374.33 213.72 370.81 C 223.17 366.25 233.18 362.16 242.87 357.74 Q 243.61 357.40 243.19 356.71 Q 243.01 356.42 242.73 356.27 Q 234.78 352.01 226.01 348.22 Q 223.80 347.26 218.77 344.42 Q 215.46 342.55 211.34 340.92 Q 203.16 337.69 189.97 330.25 Q 190.68 330.21 190.92 329.58 Q 191.19 328.89 190.45 328.88 Q 190.29 328.88 190.16 328.84 Q 189.40 328.62 190.01 328.13 L 191.76 326.71 Q 192.18 326.37 192.16 325.82 Q 192.12 324.94 193.02 324.82 A 0.38 0.38 0.0 0 0 193.31 324.29 C 192.20 321.78 193.79 320.51 195.35 318.92 Q 195.63 318.64 195.56 318.25 Q 195.36 317.10 196.36 316.49 Q 196.94 316.13 196.39 315.73 Q 196.14 315.54 196.46 315.37 A 0.43 0.43 0.0 0 0 196.47 314.62 Q 196.02 314.36 195.61 314.53 Q 195.09 314.74 195.35 314.25 Q 195.44 314.06 195.63 313.97 Q 196.04 313.77 195.66 313.52 Q 195.53 313.43 195.52 313.29 Q 195.51 313.05 195.75 313.00 Q 196.02 312.96 196.02 312.87 Q 207.16 318.38 218.39 323.71 Q 239.73 333.83 260.53 345.04 Q 262.29 345.99 263.43 347.18 A 1.33 1.31 55.0 0 0 264.96 347.46 L 348.87 306.94 Z M 34.0765 471.0567 A 1.93 0.75 128.2 0 0 35.8594 470.0038 A 1.93 0.75 128.2 0 0 36.4635 468.0233 A 1.93 0.75 128.2 0 0 34.6806 469.0762 A 1.93 0.75 128.2 0 0 34.0765 471.0567 Z"></path><ellipse fill="#FFFFFF" cx="0" cy="0" transform="rotate(12.6 -1480.557 1526.642)" rx=".77" ry=".37"></ellipse><ellipse fill="#FFFFFF" cx="0" cy="0" transform="rotate(128.2 -96.363 243.333)" rx="1.93" ry=".75"></ellipse></svg></svg> </g></g><defs v-gra="od"></defs></g></svg>